<?xml version="1.0" ?><svg id="Layer_1" style="enable-background:new 0 0 91.555557 88.666664;" version="1.1" viewBox="0 0 91.555557 88.666664" xml:space="preserve" xmlns="http://www.w3.org/2000/svg" xmlns:xlink="http://www.w3.org/1999/xlink"><style type="text/css">
	.st0{fill:#00A8E1;}
</style><title/><path class="st0" d="M6.927778,48.533333c-0.215,0.010002-0.426-0.061001-0.59-0.200001c-0.14-0.167-0.205-0.383999-0.18-0.599998  v-20.4c-0.025-0.216002,0.04-0.433001,0.18-0.6c0.166-0.125999,0.372-0.186001,0.58-0.17h2.220001  c0.419999-0.042,0.797999,0.253,0.86,0.67l0.219999,0.799999c0.639-0.616999,1.394-1.103001,2.22-1.43  c0.845-0.341999,1.748-0.518999,2.66-0.519999c1.818-0.060001,3.556001,0.748999,4.680001,2.18  c1.237999,1.705999,1.852999,3.784998,1.74,5.889997c0.034,1.528-0.259001,3.045002-0.860001,4.450001  c-0.496,1.170002-1.302,2.183002-2.33,2.93c-0.993999,0.678001-2.177,1.028-3.38,1c-0.817,0.004002-1.629-0.131001-2.4-0.399998  c-0.709001-0.238003-1.364-0.612-1.93-1.100002v6.720001c0.022,0.214001-0.038,0.429001-0.17,0.599998  c-0.171,0.132-0.386,0.192001-0.599999,0.170002L6.927778,48.533333z M13.657778,39.173332  c0.988,0.070999,1.944-0.370998,2.530001-1.169998c0.622999-1.118,0.904999-2.394001,0.809999-3.670002  c0.096001-1.287998-0.181999-2.575998-0.799999-3.709999c-0.588001-0.806999-1.554001-1.25-2.550001-1.17  c-1.057,0.001001-2.092999,0.287001-3,0.83v8.049999c0.900001,0.560001,1.940001,0.854,3,0.850002L13.657778,39.173332z"/><path class="st0" d="M25.31778,42.213333c-0.358,0.066998-0.702999-0.169003-0.77-0.528  c-0.014999-0.080002-0.014999-0.162003,0-0.242001V27.333334c-0.025-0.216002,0.040001-0.433001,0.18-0.6  c0.166-0.125999,0.372-0.186001,0.58-0.17h2.210001c0.42-0.042,0.798,0.253,0.860001,0.67l0.399998,1.639999  c0.657-0.768999,1.441999-1.418999,2.32-1.92c0.716-0.375,1.511997-0.57,2.32-0.57h0.43  c0.216999-0.019001,0.433998,0.041,0.610001,0.17c0.139999,0.167,0.204998,0.383999,0.18,0.6v2.58  c0.016998,0.208-0.042999,0.414-0.170002,0.58c-0.167,0.139999-0.383999,0.205-0.599998,0.18H33.31778  c-0.227001,0-0.513,0-0.860001,0c-0.577999,0.011999-1.153999,0.079-1.719999,0.199999c-0.59,0.109001-1.166,0.280001-1.719999,0.51  v10.249998c0.016001,0.208-0.044001,0.414001-0.17,0.580002c-0.167,0.139999-0.384001,0.204998-0.6,0.18H25.31778z"/><path class="st0" d="M39.06778,24.123333c-0.681999,0.034-1.351002-0.195-1.870003-0.639999  c-0.481998-0.451-0.740997-1.091-0.709999-1.75c-0.034-0.663,0.225002-1.307001,0.709999-1.76  c1.096001-0.877001,2.654003-0.877001,3.75,0c0.481998,0.451,0.741001,1.091,0.709999,1.75  c0.030998,0.659-0.228001,1.299-0.709999,1.75C40.42778,23.924334,39.75478,24.157333,39.06778,24.123333z M37.597778,42.223331  c-0.358002,0.067001-0.702999-0.168999-0.77-0.528c-0.014999-0.079998-0.014999-0.161999,0-0.242001V27.333334  c-0.025002-0.216002,0.040001-0.433001,0.18-0.6c0.166-0.125999,0.371998-0.186001,0.579998-0.17h2.950001  c0.214001-0.021999,0.429001,0.038,0.599998,0.17c0.132,0.171,0.192001,0.386,0.169998,0.6v14.119997  c0.016998,0.208-0.042999,0.414001-0.169998,0.580002c-0.167,0.139999-0.383999,0.204998-0.599998,0.18L37.597778,42.223331z"/><path class="st0" d="M45.877777,42.213333c-0.358002,0.066998-0.702999-0.169003-0.77-0.528  c-0.014999-0.080002-0.014999-0.162003,0-0.242001V27.333334c-0.025002-0.216002,0.040001-0.433001,0.18-0.6  c0.166-0.125999,0.372002-0.186001,0.580002-0.17h2.209999c0.419998-0.042,0.798,0.253,0.860001,0.67l0.25,0.83  c0.91-0.626999,1.894001-1.136999,2.93-1.52c0.855-0.297998,1.754002-0.452999,2.66-0.459999c1.576-0.135,3.09,0.642,3.900002,2  c0.912998-0.628,1.904999-1.132,2.950001-1.5c0.922001-0.307001,1.888-0.462,2.859997-0.460001  c1.228004-0.073999,2.431999,0.360001,3.330002,1.200001c0.827995,0.907999,1.253998,2.112999,1.18,3.34v10.789997  c0.015999,0.208-0.043999,0.414001-0.169998,0.580002c-0.167,0.139999-0.384003,0.204998-0.599998,0.18H65.31778  c-0.358002,0.066998-0.702995-0.169003-0.769997-0.528c-0.014999-0.080002-0.014999-0.162003,0-0.242001v-9.84  c0-1.393-0.623001-2.09-1.869999-2.09c-1.161999,0.012999-2.306999,0.286999-3.349998,0.799999v11.139999  c0.016998,0.208-0.042999,0.414001-0.169998,0.580002c-0.167,0.139999-0.383999,0.204998-0.599998,0.18H55.61779  c-0.358002,0.066998-0.702999-0.169003-0.77-0.528c-0.014999-0.080002-0.014999-0.162003,0-0.242001v-9.84  c0-1.393-0.623001-2.09-1.869999-2.09c-1.175999,0.007-2.334,0.292-3.380001,0.83v11.1  c0.015999,0.208-0.043999,0.413998-0.169998,0.579998c-0.167,0.139999-0.383999,0.205002-0.599998,0.18L45.877777,42.213333z"/><path class="st0" d="M79.697777,42.673332c-2.154999,0.141003-4.272003-0.614998-5.849998-2.09c-1.443001-1.652-2.164001-3.813-2-6  c-0.143997-2.266998,0.585999-4.503998,2.040001-6.249998c1.514999-1.564001,3.636002-2.393,5.809998-2.27  c1.608002-0.096001,3.195999,0.395,4.470001,1.379999c1.078003,0.92,1.671997,2.285,1.610001,3.700001  c0.072998,1.384998-0.587997,2.707001-1.739998,3.48c-1.551003,0.885998-3.328003,1.295998-5.110001,1.18  c-1.010002,0.011997-2.017998-0.102001-3-0.34c0.005997,1.105999,0.452003,2.163998,1.239998,2.939999  c0.932999,0.662003,2.069,0.977001,3.209999,0.889999c0.557999,0,1.115997-0.036999,1.669998-0.110001  c0.762001-0.118,1.515999-0.278999,2.260002-0.48h0.18h0.150002c0.347,0,0.519997,0.237,0.519997,0.709999v1.41  c0.018997,0.239002-0.028999,0.478001-0.139999,0.690002c-0.141998,0.167-0.330002,0.287998-0.540001,0.349998  C82.947777,42.426334,81.327782,42.701332,79.697777,42.673332z M78.697777,33.043335  c0.787003,0.056999,1.573997-0.109001,2.269997-0.48c0.477997-0.327,0.748001-0.882002,0.709999-1.460001  c0-1.287001-0.766998-1.93-2.300003-1.93c-1.967003,0-3.102997,1.206999-3.410004,3.620001  c0.892998,0.170998,1.801003,0.254997,2.709999,0.25H78.697777z"/><path class="st0" d="M78.087776,59.443333c-8.760002,6.460003-21.459999,9.890003-32.389999,9.890003  c-14.605999,0.077995-28.716-5.294998-39.57-15.070004c-0.82-0.740002-0.09-1.75,0.9-1.18  c12.057999,6.885002,25.705,10.500999,39.590004,10.489998c10.361-0.055,20.609997-2.152,30.16-6.169998  C78.297775,56.773331,79.537781,58.333332,78.087776,59.443333z"/><path class="st0" d="M81.777779,55.333332c-1.120003-1.43-7.400002-0.68-10.229996-0.34  c-0.860001,0.099998-1-0.639999-0.220001-1.18c5-3.52,13.229996-2.5,14.18-1.32s-0.25,9.41-5,13.340004  c-0.720001,0.599998-1.410004,0.279999-1.089996-0.520004C80.487778,62.623333,82.85778,56.723331,81.777779,55.333332z"/></svg>